<svg width="819" height="934" viewBox="0 0 819 934" fill="none" xmlns="http://www.w3.org/2000/svg">
<path fill-rule="evenodd" clip-rule="evenodd" d="M445.121 894.349C367.048 896.085 292.865 948.262 217.922 917.653C132.277 882.674 40.6094 819.8 8.81344 716.149C-22.7428 613.28 41.3908 512.189 61.3587 407.278C80.771 305.286 66.7276 187.134 124.031 110.798C183.601 31.4438 277.294 -1.5208 366.899 0.259064C452.132 1.95211 524.379 68.1393 599.748 120.248C678.355 174.594 788.71 204.365 814.47 309.698C840.512 416.184 739.761 499.327 718.365 605.274C698.146 705.393 756.962 840.285 693.83 907.074C630.666 973.898 529.98 892.463 445.121 894.349Z" fill="#F9B300"/>
</svg>
