<svg width="1025" height="1234" viewBox="0 0 1025 1234" fill="none" xmlns="http://www.w3.org/2000/svg">
<path fill-rule="evenodd" clip-rule="evenodd" d="M603.719 112.003C690.239 135.302 789.445 96.4715 861.64 157.779C944.144 227.842 1023.9 333.521 1024.03 468.929C1024.16 603.316 919.563 704.436 862.295 824.53C806.62 941.281 782.334 1088.41 693.582 1161.88C601.32 1238.26 487.101 1247.56 389.071 1216.27C295.822 1186.51 238.562 1083.15 173.13 995.758C104.887 904.616 -6.56879 832.802 0.508173 697.326C7.66252 560.368 146.528 492.814 205.717 371.936C261.65 257.707 242.284 75.8143 334.24 15.7581C426.244 -44.3292 509.678 86.6796 603.719 112.003Z" fill="#F9B300"/>
</svg>
